<?xml version="1.0" standalone="no"?>
<!DOCTYPE svg PUBLIC "-//W3C//DTD SVG 20010904//EN"
 "http://www.w3.org/TR/2001/REC-SVG-20010904/DTD/svg10.dtd">
<svg version="1.0" xmlns="http://www.w3.org/2000/svg"
 width="256.000000pt" height="256.000000pt" viewBox="0 0 256.000000 256.000000"
 preserveAspectRatio="xMidYMid meet">

<g transform="translate(0.000000,256.000000) scale(0.100000,-0.100000)"
fill="#000000" stroke="none">
<path d="M1246 2544 c-13 -12 -16 -41 -16 -154 0 -138 0 -140 25 -156 23 -15
27 -15 50 0 25 16 25 18 25 156 0 147 -7 170 -50 170 -10 0 -26 -7 -34 -16z"/>
<path d="M642 2389 c-37 -14 -28 -57 41 -174 34 -59 70 -113 79 -118 26 -17
68 7 68 38 0 32 -128 252 -150 258 -9 2 -26 0 -38 -4z"/>
<path d="M1879 2393 c-21 -5 -149 -226 -149 -258 0 -31 42 -55 68 -38 9 5 45
59 80 119 46 78 62 116 60 138 -3 29 -28 46 -59 39z"/>
<path d="M1175 2069 c-330 -50 -580 -273 -666 -594 -29 -110 -29 -278 0 -390
96 -361 400 -597 771 -597 246 0 459 100 615 289 191 232 233 567 105 842 -78
165 -216 304 -383 381 -126 60 -314 89 -442 69z m275 -115 c239 -54 447 -265
506 -511 21 -87 22 -238 1 -325 -34 -142 -121 -280 -235 -373 -277 -229 -678
-210 -933 44 -272 273 -272 709 0 982 175 175 410 240 661 183z"/>
<path d="M171 1918 c-4 -12 -6 -29 -4 -38 6 -22 226 -150 258 -150 31 0 55 42
38 68 -5 9 -59 45 -118 79 -117 69 -160 78 -174 41z"/>
<path d="M2211 1876 c-118 -69 -130 -83 -113 -120 18 -41 55 -33 171 37 113
68 134 89 120 125 -15 38 -62 27 -178 -42z"/>
<path d="M16 1314 c-20 -20 -20 -48 0 -68 12 -13 41 -16 154 -16 138 0 140 0
156 25 15 23 15 27 0 50 -16 25 -18 25 -156 25 -113 0 -142 -3 -154 -16z"/>
<path d="M2234 1305 c-15 -23 -15 -27 0 -50 16 -25 18 -25 156 -25 147 0 170
7 170 50 0 43 -23 50 -170 50 -138 0 -140 0 -156 -25z"/>
<path d="M283 763 c-61 -37 -114 -74 -116 -83 -2 -9 0 -26 4 -38 14 -37 57
-28 174 41 122 70 134 83 117 121 -18 41 -55 32 -179 -41z"/>
<path d="M2098 804 c-17 -38 -5 -51 117 -121 118 -69 160 -78 174 -40 14 35
-7 56 -120 124 -116 69 -153 77 -171 37z"/>
<path d="M750 454 c-37 -44 -130 -220 -130 -246 0 -35 34 -53 65 -33 29 18
144 215 145 247 0 42 -54 64 -80 32z"/>
<path d="M1748 459 c-31 -17 -19 -60 45 -168 68 -113 89 -134 125 -120 37 14
28 56 -36 167 -82 141 -89 148 -134 121z"/>
<path d="M1252 324 c-21 -14 -22 -22 -22 -154 0 -147 7 -170 50 -170 43 0 50
23 50 170 0 132 -1 140 -22 154 -12 9 -25 16 -28 16 -3 0 -16 -7 -28 -16z"/>
</g>
</svg>
