<?xml version="1.0" standalone="no"?>
<!DOCTYPE svg PUBLIC "-//W3C//DTD SVG 20010904//EN"
 "http://www.w3.org/TR/2001/REC-SVG-20010904/DTD/svg10.dtd">
<svg version="1.0" xmlns="http://www.w3.org/2000/svg"
 width="512.000000pt" height="512.000000pt" viewBox="0 0 512.000000 512.000000"
 preserveAspectRatio="xMidYMid meet">

<g transform="translate(0.000000,512.000000) scale(0.100000,-0.100000)"
fill="#000000" stroke="none">
<path d="M2340 5104 c-469 -57 -880 -223 -1265 -514 -139 -105 -372 -340 -481
-485 -277 -370 -437 -766 -500 -1234 -20 -155 -20 -468 1 -626 78 -591 356
-1141 777 -1540 396 -375 886 -606 1453 -687 116 -16 502 -16 620 0 325 46
610 134 873 272 525 276 940 723 1171 1263 57 131 63 179 31 220 -34 43 -79
45 -147 8 -202 -110 -404 -187 -598 -226 -540 -109 -1074 5 -1527 325 -108 76
-293 251 -380 359 -516 639 -578 1527 -156 2229 83 138 164 241 302 380 124
126 131 134 131 173 0 34 -6 46 -33 70 -29 26 -39 29 -95 28 -34 -1 -114 -7
-177 -15z m-132 -291 c-240 -302 -399 -667 -454 -1049 -23 -160 -23 -449 0
-601 122 -799 649 -1448 1396 -1720 242 -88 469 -127 740 -126 286 1 515 43
783 146 l69 27 -38 -68 c-315 -573 -868 -996 -1509 -1153 -209 -51 -318 -63
-560 -63 -241 0 -354 13 -563 64 -251 61 -526 182 -737 322 -706 470 -1101
1261 -1054 2110 32 570 273 1110 679 1519 321 323 713 541 1160 643 163 38
161 39 88 -51z"/>
</g>
</svg>
