<?xml version="1.0" standalone="no"?>
<!DOCTYPE svg PUBLIC "-//W3C//DTD SVG 20010904//EN"
 "http://www.w3.org/TR/2001/REC-SVG-20010904/DTD/svg10.dtd">
<svg version="1.0" xmlns="http://www.w3.org/2000/svg"
 width="512.000000pt" height="512.000000pt" viewBox="0 0 512.000000 512.000000"
 preserveAspectRatio="xMidYMid meet">

<g transform="translate(0.000000,512.000000) scale(0.100000,-0.100000)"
fill="#000000" stroke="none">
<path d="M1989 4891 l-29 -29 0 -227 0 -227 29 -29 c33 -33 91 -40 127 -14 41
28 45 60 42 284 l-3 213 -33 29 c-44 40 -93 40 -133 0z"/>
<path d="M1029 4645 c-36 -19 -55 -68 -43 -109 5 -18 54 -110 108 -204 82
-141 105 -174 133 -187 64 -31 137 17 137 89 0 38 -180 357 -225 399 -33 30
-69 34 -110 12z"/>
<path d="M2988 4645 c-37 -21 -238 -370 -238 -413 0 -47 47 -96 92 -96 20 0
46 7 60 16 24 16 217 339 230 386 8 28 -10 80 -35 100 -24 20 -79 24 -109 7z"/>
<path d="M1825 4040 c-386 -84 -691 -323 -854 -671 -160 -340 -148 -729 32
-1072 57 -110 84 -137 134 -137 45 0 69 14 88 50 23 44 19 68 -25 141 -100
168 -134 299 -134 514 -1 191 17 271 93 430 58 119 98 177 188 269 194 196
435 296 713 296 273 0 509 -98 701 -289 121 -122 202 -257 255 -426 32 -105
57 -135 109 -135 47 0 71 14 91 52 19 37 15 73 -22 184 -126 378 -448 677
-841 781 -138 36 -394 42 -528 13z"/>
<path d="M307 3929 c-50 -29 -58 -117 -14 -156 48 -43 362 -215 394 -216 44
-1 86 32 97 75 16 64 -8 88 -209 204 -183 106 -223 119 -268 93z"/>
<path d="M3545 3840 c-93 -55 -180 -111 -192 -125 -32 -37 -30 -87 5 -126 47
-53 76 -46 273 68 94 54 182 109 195 122 35 35 33 93 -5 132 -50 50 -81 42
-276 -71z"/>
<path d="M35 2938 c-56 -49 -40 -134 30 -164 50 -20 401 -20 451 1 46 19 70
72 54 120 -20 62 -34 65 -284 65 -219 0 -226 -1 -251 -22z"/>
<path d="M3390 2945 c-235 -50 -444 -183 -581 -370 l-44 -61 -59 18 c-131 40
-302 41 -434 3 -186 -55 -366 -201 -453 -370 l-32 -61 -61 9 c-34 5 -101 6
-151 3 -414 -27 -753 -297 -871 -693 -32 -108 -43 -302 -24 -419 41 -257 189
-491 403 -636 81 -55 207 -114 302 -140 l80 -23 1455 -3 c1585 -3 1531 -4
1676 54 189 75 337 208 428 384 58 111 85 211 93 335 20 357 -192 680 -536
814 l-67 26 9 45 c4 25 6 108 4 185 -4 114 -10 157 -31 228 -46 155 -120 281
-230 396 -122 126 -255 207 -423 257 -74 23 -111 27 -238 30 -102 2 -171 -1
-215 -11z m353 -201 c93 -20 236 -90 312 -151 109 -88 196 -217 245 -363 34
-100 39 -289 11 -400 -11 -46 -21 -95 -21 -108 0 -43 48 -77 133 -96 340 -76
556 -408 481 -739 -21 -91 -43 -142 -93 -216 -85 -125 -233 -225 -377 -256
-59 -12 -283 -15 -1477 -15 -1537 0 -1482 -2 -1622 57 -170 72 -325 221 -401
388 -80 173 -86 410 -17 585 101 252 315 429 578 475 111 19 143 19 272 -2 93
-15 108 -15 131 -2 28 15 31 20 85 139 129 284 452 400 746 269 35 -16 74 -29
86 -29 35 0 70 34 110 106 96 171 294 317 490 359 84 19 242 18 328 -1z"/>
<path d="M475 2066 c-145 -83 -184 -110 -199 -138 -23 -41 -17 -78 19 -114 45
-45 82 -35 261 67 201 116 222 131 229 173 8 38 -14 89 -44 106 -47 24 -83 11
-266 -94z"/>
</g>
</svg>
