<?xml version="1.0" standalone="no"?>
<!DOCTYPE svg PUBLIC "-//W3C//DTD SVG 20010904//EN"
 "http://www.w3.org/TR/2001/REC-SVG-20010904/DTD/svg10.dtd">
<svg version="1.0" xmlns="http://www.w3.org/2000/svg"
 width="512.000000pt" height="512.000000pt" viewBox="0 0 512.000000 512.000000"
 preserveAspectRatio="xMidYMid meet">

<g transform="translate(0.000000,512.000000) scale(0.100000,-0.100000)"
fill="#bd7777" stroke="none">
<path d="M3225 4910 c-96 -13 -209 -43 -297 -79 -159 -66 -345 -212 -439 -342
-79 -110 -69 -102 -112 -84 -113 47 -338 62 -471 31 -261 -61 -469 -226 -590
-464 -23 -46 -31 -53 -49 -48 -12 3 -62 9 -112 12 -237 17 -512 -66 -711 -214
-477 -355 -584 -1014 -245 -1505 61 -88 192 -217 280 -277 92 -62 236 -127
348 -158 l98 -27 1700 0 c1580 0 1705 1 1767 17 362 93 615 347 705 706 26
102 23 332 -6 437 -45 168 -134 318 -262 441 -111 106 -204 163 -339 209 -61
21 -65 24 -63 51 2 16 5 94 9 174 5 125 3 159 -16 249 -52 254 -184 474 -379
631 -226 183 -540 275 -816 240z m339 -220 c351 -89 610 -371 667 -724 16
-102 7 -280 -20 -373 -12 -40 -21 -82 -21 -94 0 -29 62 -89 92 -89 13 0 57 -9
98 -21 331 -91 559 -407 537 -744 -7 -114 -27 -189 -77 -290 -69 -139 -185
-255 -325 -325 -162 -81 -5 -75 -1880 -75 -1612 0 -1673 1 -1745 19 -175 45
-311 123 -435 250 -116 119 -190 254 -232 422 -26 103 -23 314 6 419 84 314
334 564 646 646 108 29 307 31 416 6 109 -25 141 -9 173 88 52 158 180 305
330 379 101 49 184 68 296 68 107 0 188 -18 284 -62 112 -52 145 -39 215 89
183 329 603 506 975 411z"/>
<path d="M1314 1405 c-39 -27 -46 -63 -42 -225 l3 -152 33 -29 c44 -40 93 -40
133 0 l29 29 0 167 0 167 -29 29 c-33 33 -91 40 -127 14z"/>
<path d="M2097 1396 c-33 -30 -40 -80 -36 -241 l4 -127 33 -29 c44 -40 93 -40
133 0 l29 29 0 168 0 168 -27 28 c-36 37 -98 39 -136 4z"/>
<path d="M2887 1392 l-27 -28 0 -168 0 -168 29 -29 c40 -40 89 -40 133 0 l33
29 4 127 c4 160 -3 206 -36 239 -37 37 -99 36 -136 -2z"/>
<path d="M3679 1391 l-29 -29 0 -167 0 -167 29 -29 c40 -40 89 -40 133 0 l33
29 3 152 c4 162 -3 198 -42 225 -36 26 -94 19 -127 -14z"/>
<path d="M1335 651 c-11 -5 -29 -19 -40 -31 -18 -20 -20 -39 -23 -175 -4 -176
5 -206 64 -231 44 -18 77 -10 109 28 24 29 25 33 25 191 0 138 -3 165 -18 183
-32 40 -74 52 -117 35z"/>
<path d="M2120 647 c-47 -23 -60 -68 -60 -215 0 -159 11 -195 65 -218 29 -12
44 -13 70 -4 59 19 65 40 65 220 0 92 -4 170 -10 181 -12 22 -60 49 -87 49
-10 0 -29 -6 -43 -13z"/>
<path d="M2908 645 c-15 -8 -32 -24 -38 -35 -6 -10 -10 -90 -10 -182 0 -183 5
-198 64 -218 27 -9 42 -8 71 4 54 23 65 60 65 216 0 173 -17 215 -92 226 -19
2 -44 -2 -60 -11z"/>
<path d="M3705 649 c-51 -29 -55 -44 -55 -211 0 -176 6 -199 57 -223 45 -22
97 -6 124 39 18 28 19 47 17 188 -3 154 -4 158 -29 183 -29 29 -85 41 -114 24z"/>
</g>
</svg>
