<?xml version="1.0" standalone="no"?>
<!DOCTYPE svg PUBLIC "-//W3C//DTD SVG 20010904//EN"
 "http://www.w3.org/TR/2001/REC-SVG-20010904/DTD/svg10.dtd">
<svg version="1.0" xmlns="http://www.w3.org/2000/svg"
 width="512.000000pt" height="512.000000pt" viewBox="0 0 512.000000 512.000000"
 preserveAspectRatio="xMidYMid meet">

<g transform="translate(0.000000,512.000000) scale(0.100000,-0.100000)"
fill="#bd7777" stroke="none">
<path d="M33 4435 c-32 -32 -35 -39 -30 -78 7 -52 45 -88 197 -189 186 -123
345 -188 463 -188 104 0 193 44 352 175 88 73 163 109 208 100 39 -8 108 -53
207 -134 41 -34 109 -79 150 -99 69 -34 80 -37 165 -37 82 0 97 3 155 32 36
18 115 70 176 116 130 100 166 120 214 120 48 0 98 -28 210 -118 130 -104 218
-147 314 -153 121 -8 187 23 389 181 167 131 196 127 432 -59 39 -30 99 -69
135 -87 58 -29 73 -32 155 -32 110 0 152 18 295 126 204 154 229 164 336 127
84 -30 175 -82 315 -182 129 -92 159 -98 216 -41 32 32 35 39 30 78 -7 52 -55
99 -207 200 -195 130 -333 182 -459 175 -101 -6 -156 -32 -306 -145 -140 -105
-176 -126 -225 -126 -48 0 -76 16 -205 117 -60 48 -139 101 -175 119 -59 29
-73 32 -160 32 -87 0 -101 -3 -160 -32 -36 -18 -114 -71 -175 -119 -132 -103
-157 -117 -213 -116 -49 0 -98 26 -192 102 -110 89 -207 148 -264 161 -130 29
-246 -11 -411 -141 -208 -165 -234 -165 -445 5 -123 98 -202 138 -288 143
-127 8 -200 -23 -382 -168 -107 -85 -144 -104 -200 -103 -79 1 -241 83 -419
212 -105 76 -143 81 -198 26z"/>
<path d="M63 3630 c-13 -5 -32 -24 -43 -42 -28 -44 -20 -91 22 -135 72 -75
354 -244 467 -279 179 -56 282 -30 468 119 130 104 169 127 220 127 57 0 97
-22 218 -120 158 -128 263 -169 384 -149 77 12 139 45 267 143 130 98 180 126
229 126 48 0 68 -12 210 -120 137 -103 198 -137 276 -149 128 -21 222 18 414
174 89 72 134 95 185 95 53 0 86 -17 194 -102 186 -147 244 -173 368 -167 95
5 164 39 313 152 61 46 125 91 142 101 92 47 227 -4 477 -183 82 -58 107 -71
138 -71 72 0 117 54 104 124 -8 43 -50 80 -201 181 -199 133 -352 192 -472
182 -87 -7 -164 -46 -316 -160 -148 -112 -187 -127 -253 -102 -24 9 -92 55
-151 101 -283 221 -420 219 -698 -11 -72 -59 -154 -105 -190 -105 -38 0 -120
47 -215 124 -52 42 -129 93 -170 114 -69 34 -80 37 -160 36 -119 -1 -172 -26
-350 -167 -41 -33 -99 -71 -128 -84 -86 -40 -126 -25 -292 109 -47 38 -119 86
-159 106 -69 34 -82 37 -160 37 -76 0 -94 -4 -151 -31 -36 -17 -120 -75 -188
-127 -70 -55 -140 -102 -163 -108 -87 -27 -223 35 -503 230 -59 41 -90 48
-133 31z"/>
<path d="M62 2793 c-36 -17 -62 -58 -62 -95 0 -47 39 -86 175 -177 230 -154
355 -206 490 -205 115 1 175 31 350 172 85 70 144 101 188 102 42 0 101 -34
209 -121 117 -94 165 -122 242 -144 130 -38 227 -4 429 148 70 53 146 102 167
108 58 17 104 0 201 -74 189 -145 264 -186 357 -194 112 -10 195 28 372 167
95 75 157 110 194 110 47 0 107 -32 214 -117 185 -145 286 -181 413 -149 78
20 122 46 253 146 136 103 176 123 237 118 81 -8 240 -92 405 -215 86 -64 120
-73 167 -44 52 32 69 83 46 135 -21 45 -246 205 -375 267 -154 73 -245 90
-344 65 -77 -20 -136 -54 -256 -148 -103 -81 -171 -118 -214 -118 -43 0 -90
27 -199 113 -123 97 -183 133 -256 152 -77 20 -110 19 -184 -4 -72 -22 -130
-58 -249 -153 -103 -83 -149 -108 -197 -108 -50 0 -93 24 -220 124 -125 99
-185 131 -268 147 -122 22 -222 -20 -417 -175 -165 -130 -209 -129 -389 16
-122 99 -183 134 -264 154 -125 31 -228 -3 -382 -128 -124 -99 -190 -138 -236
-138 -80 0 -241 78 -408 198 -69 50 -128 82 -148 82 -4 0 -23 -8 -41 -17z"/>
<path d="M1130 1966 c-74 -16 -142 -55 -253 -143 -139 -112 -166 -126 -235
-121 -88 6 -231 80 -421 215 -87 63 -137 71 -183 28 -57 -52 -50 -115 20 -173
76 -63 225 -159 319 -206 133 -66 185 -81 284 -81 78 0 91 3 160 37 40 21 119
74 174 119 104 85 163 119 205 119 41 0 101 -33 187 -103 176 -144 265 -184
383 -174 92 8 155 39 302 149 70 53 147 103 171 113 65 25 107 9 224 -82 198
-155 273 -189 394 -181 92 7 163 43 304 154 130 102 181 129 233 119 52 -10
75 -23 197 -119 61 -48 139 -101 175 -119 58 -28 74 -32 151 -32 78 0 91 3
160 37 40 20 117 71 169 113 104 82 179 125 220 125 83 0 230 -78 465 -246 42
-30 56 -35 88 -31 44 6 62 19 84 60 20 39 10 89 -26 124 -78 79 -331 233 -447
274 -188 65 -289 39 -509 -131 -119 -92 -152 -110 -200 -110 -47 0 -96 26
-186 98 -193 152 -289 192 -418 171 -76 -12 -141 -48 -267 -146 -126 -99 -170
-123 -219 -123 -50 0 -104 30 -220 122 -55 43 -127 92 -161 109 -154 76 -290
48 -476 -99 -218 -173 -252 -174 -450 -11 -159 130 -274 173 -398 145z"/>
<path d="M33 1105 c-32 -32 -35 -40 -30 -76 7 -55 36 -84 181 -180 138 -93
225 -139 333 -175 66 -22 91 -26 160 -22 104 6 171 38 308 148 197 159 233
161 412 16 174 -140 248 -172 375 -164 85 5 181 52 302 148 202 161 230 161
426 6 139 -111 216 -148 312 -154 123 -7 204 28 363 158 184 151 224 151 417
-5 51 -41 125 -92 163 -113 67 -35 74 -37 165 -37 120 0 160 18 320 139 144
110 181 130 243 129 77 -1 258 -97 424 -224 83 -64 127 -67 180 -14 32 32 35
40 30 76 -3 26 -16 52 -33 70 -47 49 -244 181 -343 229 -246 121 -372 107
-587 -61 -149 -118 -206 -145 -269 -128 -19 6 -95 55 -168 110 -184 139 -217
154 -337 154 -87 0 -101 -3 -160 -32 -36 -18 -108 -66 -160 -108 -127 -102
-173 -128 -224 -128 -53 0 -91 20 -196 102 -189 148 -249 176 -368 169 -92 -6
-182 -49 -306 -148 -121 -96 -169 -123 -220 -123 -54 0 -101 26 -221 123 -134
108 -204 142 -303 148 -124 7 -189 -23 -367 -166 -44 -36 -104 -76 -133 -89
-48 -22 -57 -24 -105 -13 -28 6 -88 28 -132 50 -76 37 -125 68 -278 173 -87
60 -123 63 -174 12z"/>
</g>
</svg>
