<?xml version="1.0" standalone="no"?>
<!DOCTYPE svg PUBLIC "-//W3C//DTD SVG 20010904//EN"
 "http://www.w3.org/TR/2001/REC-SVG-20010904/DTD/svg10.dtd">
<svg version="1.0" xmlns="http://www.w3.org/2000/svg"
 width="512.000000pt" height="512.000000pt" viewBox="0 0 512.000000 512.000000"
 preserveAspectRatio="xMidYMid meet">

<g transform="translate(0.000000,512.000000) scale(0.100000,-0.100000)"
fill="#bd7777" stroke="none">
<path d="M3228 4910 c-95 -12 -221 -46 -310 -85 -171 -74 -359 -227 -457 -373
-33 -49 -47 -62 -59 -56 -49 20 -157 45 -229 53 -348 36 -682 -146 -849 -462
-31 -59 -39 -68 -58 -63 -53 14 -208 18 -296 6 -828 -108 -1243 -1030 -771
-1713 61 -88 192 -217 280 -277 92 -62 236 -127 348 -158 l98 -27 1710 0 1710
0 90 28 c311 97 537 311 634 602 77 234 64 472 -38 691 -54 115 -113 195 -213
290 -113 105 -194 152 -381 217 -15 6 -17 14 -10 59 4 29 8 121 8 203 -1 119
-5 168 -22 236 -103 412 -431 728 -843 813 -96 19 -256 27 -342 16z m222 -200
c402 -49 717 -349 781 -744 16 -102 7 -280 -20 -373 -27 -94 -26 -107 7 -143
22 -26 42 -34 117 -50 241 -52 444 -223 533 -450 38 -98 46 -143 46 -265 1
-137 -15 -208 -69 -322 -86 -178 -244 -314 -443 -382 l-77 -26 -1685 0 c-1616
0 -1688 1 -1754 19 -339 92 -579 335 -663 672 -25 103 -23 314 5 419 30 109
100 249 172 340 112 140 293 257 475 306 107 29 306 32 416 6 106 -25 142 -8
169 78 47 151 190 319 330 387 102 50 187 70 295 70 108 0 204 -21 285 -62 98
-49 150 -38 192 43 81 161 229 307 393 389 101 51 256 90 385 97 14 0 64 -4
110 -9z"/>
<path d="M1916 1398 c-37 -33 -149 -311 -141 -349 16 -73 113 -103 163 -51 39
39 147 311 138 347 -18 71 -107 100 -160 53z"/>
<path d="M2706 1398 c-32 -29 -136 -283 -136 -333 0 -79 96 -124 155 -72 36
31 138 278 139 335 1 36 -4 48 -27 68 -37 32 -96 33 -131 2z"/>
<path d="M3501 1403 c-29 -24 -141 -294 -141 -339 0 -49 45 -94 94 -94 58 0
87 37 150 193 31 75 56 151 56 168 0 46 -47 89 -98 89 -23 0 -49 -7 -61 -17z"/>
<path d="M1623 650 c-12 -5 -29 -20 -38 -33 -29 -44 -125 -289 -125 -318 0
-45 49 -93 94 -93 61 0 83 26 147 179 74 179 76 225 9 260 -32 17 -54 18 -87
5z"/>
<path d="M2404 641 c-25 -15 -41 -44 -88 -157 -74 -177 -78 -201 -39 -244 24
-27 36 -33 72 -33 61 0 80 24 145 183 72 173 73 221 6 255 -38 20 -58 19 -96
-4z"/>
<path d="M3195 642 c-25 -16 -42 -46 -93 -173 -34 -85 -62 -160 -62 -167 0
-30 34 -74 66 -88 41 -17 74 -11 103 20 33 35 144 313 137 342 -17 68 -95 102
-151 66z"/>
</g>
</svg>
