<?xml version="1.0" standalone="no"?>
<!DOCTYPE svg PUBLIC "-//W3C//DTD SVG 20010904//EN"
 "http://www.w3.org/TR/2001/REC-SVG-20010904/DTD/svg10.dtd">
<svg version="1.0" xmlns="http://www.w3.org/2000/svg"
 width="512.000000pt" height="512.000000pt" viewBox="0 0 512.000000 512.000000"
 preserveAspectRatio="xMidYMid meet">

<g transform="translate(0.000000,512.000000) scale(0.100000,-0.100000)"
fill="#bd7777" stroke="none">
<path d="M3180 4855 c-168 -28 -347 -104 -481 -204 -79 -60 -196 -181 -244
-254 l-35 -53 -70 22 c-389 127 -830 -53 -1019 -415 l-40 -78 -48 8 c-79 13
-235 10 -326 -6 -228 -40 -407 -129 -571 -285 -107 -102 -168 -184 -232 -315
-331 -674 103 -1472 851 -1564 118 -14 370 -14 398 0 62 32 77 111 29 158
l-28 28 -199 6 c-156 4 -218 10 -283 26 -319 80 -567 325 -653 646 -29 105
-32 316 -6 419 118 473 569 770 1034 681 148 -28 168 -20 208 87 65 173 176
298 329 373 197 96 406 96 598 -1 84 -42 128 -26 176 65 114 213 302 363 548
437 79 24 106 27 234 27 117 0 160 -4 222 -21 268 -73 471 -245 588 -496 63
-133 74 -190 75 -366 0 -133 -3 -166 -23 -234 -37 -129 -17 -165 112 -191 151
-31 253 -84 362 -187 118 -113 186 -233 218 -390 66 -319 -96 -650 -388 -793
-147 -72 -174 -77 -489 -84 l-279 -6 -24 -28 c-48 -55 -20 -145 50 -163 15 -3
145 -4 289 -1 229 4 273 7 347 27 400 105 681 443 707 851 26 419 -243 814
-645 944 l-52 17 7 51 c5 29 8 122 7 207 0 136 -3 167 -27 255 -128 470 -535
794 -1017 810 -80 3 -155 -1 -210 -10z"/>
<path d="M2274 3281 c-17 -11 -36 -32 -42 -48 -5 -15 -123 -340 -261 -721
-138 -381 -251 -704 -251 -717 0 -14 13 -39 29 -57 l29 -33 286 -3 c157 -2
286 -4 286 -6 0 -2 -106 -279 -236 -617 -130 -338 -243 -634 -250 -657 -12
-37 -11 -49 1 -78 26 -62 103 -80 153 -37 11 10 356 441 768 958 411 517 754
948 763 958 8 10 16 37 16 59 0 33 -6 45 -33 69 l-32 29 -285 0 c-157 0 -285
3 -285 8 0 4 77 180 171 392 94 212 171 399 172 416 1 39 -26 82 -59 94 -15 6
-210 10 -467 10 -417 0 -444 -1 -473 -19z m743 -193 c-3 -7 -82 -187 -176
-400 -94 -213 -171 -399 -171 -413 0 -13 13 -39 29 -57 l29 -33 262 -3 c144
-2 260 -7 258 -11 -5 -14 -952 -1200 -956 -1197 -1 2 65 178 147 392 82 214
153 401 156 417 4 16 2 40 -5 58 -24 56 -41 59 -345 59 -196 0 -275 3 -275 11
0 11 416 1165 426 1181 3 4 145 8 316 8 244 0 309 -3 305 -12z"/>
<path d="M1258 1441 l-33 -29 -3 -138 c-2 -75 -1 -152 2 -170 16 -81 109 -112
167 -55 l29 29 0 167 0 167 -29 29 c-40 40 -89 40 -133 0z"/>
<path d="M3729 1441 l-29 -29 0 -167 0 -167 29 -29 c58 -57 151 -26 167 55 3
18 4 95 2 170 l-3 138 -33 29 c-44 40 -93 40 -133 0z"/>
<path d="M1282 695 c-54 -24 -64 -63 -60 -236 3 -140 4 -149 27 -173 45 -48
132 -40 161 13 6 11 10 90 10 183 0 153 -1 166 -21 187 -19 20 -60 42 -77 41
-4 -1 -22 -7 -40 -15z"/>
<path d="M3756 695 c-53 -28 -55 -37 -56 -218 0 -164 1 -168 24 -192 47 -47
112 -43 150 9 19 24 21 45 24 170 4 170 -6 208 -62 231 -43 18 -44 18 -80 0z"/>
</g>
</svg>
