<?xml version="1.0" standalone="no"?>
<!DOCTYPE svg PUBLIC "-//W3C//DTD SVG 20010904//EN"
 "http://www.w3.org/TR/2001/REC-SVG-20010904/DTD/svg10.dtd">
<svg version="1.0" xmlns="http://www.w3.org/2000/svg"
 width="512.000000pt" height="512.000000pt" viewBox="0 0 512.000000 512.000000"
 preserveAspectRatio="xMidYMid meet">

<g transform="translate(0.000000,512.000000) scale(0.100000,-0.100000)"
fill="#bd7777" stroke="none">
<path d="M2511 5106 c-49 -27 -50 -35 -51 -433 0 -205 -2 -373 -5 -373 -3 0
-136 76 -297 169 -368 211 -353 204 -393 197 -72 -14 -106 -106 -58 -158 12
-13 187 -118 387 -233 l366 -210 0 -196 0 -196 -407 -235 -406 -235 -168 96
-168 96 -1 427 c0 246 -4 437 -10 452 -12 34 -55 60 -98 60 -26 0 -41 -8 -63
-32 l-29 -32 0 -375 c0 -206 -3 -375 -6 -375 -3 0 -142 78 -307 174 -166 95
-312 178 -324 185 -63 33 -143 -18 -143 -90 0 -54 25 -72 349 -259 177 -101
321 -187 321 -190 0 -3 -145 -88 -321 -190 -283 -163 -323 -189 -336 -219 -18
-41 -10 -81 23 -112 52 -49 67 -42 468 189 202 117 373 212 379 210 7 -2 85
-45 175 -96 l162 -93 0 -469 0 -469 -162 -93 c-90 -51 -168 -94 -175 -96 -6
-2 -177 93 -379 210 -401 231 -416 238 -468 189 -34 -32 -41 -72 -22 -113 14
-29 62 -60 336 -218 176 -102 320 -187 320 -190 0 -3 -144 -89 -321 -190 -324
-187 -349 -205 -349 -259 0 -72 80 -123 143 -90 12 7 158 90 324 185 165 96
304 174 307 174 3 0 6 -169 6 -375 l0 -375 29 -32 c22 -24 37 -32 63 -32 43 0
86 26 98 60 6 15 10 206 10 452 l1 427 168 96 168 96 406 -235 407 -235 0
-196 0 -196 -366 -210 c-200 -115 -375 -220 -387 -233 -48 -52 -14 -144 58
-158 40 -7 25 -14 393 197 161 93 294 169 297 169 3 0 5 -166 5 -370 0 -397 2
-410 51 -436 35 -18 63 -18 98 0 49 26 51 39 51 436 0 204 2 370 5 370 3 0
137 -76 298 -169 366 -211 352 -204 392 -197 73 14 106 106 57 159 -13 14
-187 119 -387 233 l-364 209 -1 196 0 196 407 235 407 235 168 -96 167 -96 1
-427 c0 -246 4 -437 10 -452 12 -34 55 -60 98 -60 26 0 41 8 63 32 l29 32 0
376 c0 314 2 375 14 371 7 -3 154 -87 327 -186 172 -100 324 -181 337 -181 53
0 102 48 102 101 0 54 -25 72 -349 259 -177 102 -321 187 -321 190 0 3 144 88
320 189 275 159 322 189 335 218 30 62 -7 128 -76 139 -30 5 -75 -18 -399
-207 -201 -116 -371 -214 -378 -216 -7 -3 -89 38 -182 92 l-170 97 0 468 0
468 158 90 c86 50 165 94 174 97 11 4 138 -64 385 -206 400 -232 415 -238 467
-190 34 32 41 72 21 114 -13 29 -60 59 -335 218 -176 101 -320 186 -320 189 0
3 144 88 321 190 324 187 349 205 349 259 0 53 -49 101 -102 101 -13 0 -165
-81 -337 -181 -173 -99 -320 -183 -327 -186 -12 -4 -14 57 -14 371 l0 376 -29
32 c-22 24 -37 32 -63 32 -43 0 -86 -26 -98 -60 -6 -15 -10 -206 -10 -452 l-1
-427 -167 -96 -168 -96 -407 235 -407 235 0 196 1 196 364 209 c200 114 374
219 387 233 49 53 16 145 -57 159 -40 7 -26 14 -392 -197 -161 -93 -295 -169
-298 -169 -3 0 -5 167 -5 370 0 402 -1 414 -55 438 -33 15 -64 15 -94 -2z
m458 -1841 l400 -230 0 -475 0 -475 -404 -232 -404 -233 -403 233 -403 233 0
474 0 474 400 232 c220 128 403 232 407 231 4 -1 187 -105 407 -232z"/>
</g>
</svg>
