<?xml version="1.0" standalone="no"?>
<!DOCTYPE svg PUBLIC "-//W3C//DTD SVG 20010904//EN"
 "http://www.w3.org/TR/2001/REC-SVG-20010904/DTD/svg10.dtd">
<svg version="1.0" xmlns="http://www.w3.org/2000/svg"
 width="512.000000pt" height="512.000000pt" viewBox="0 0 512.000000 512.000000"
 preserveAspectRatio="xMidYMid meet">

<g transform="translate(0.000000,512.000000) scale(0.100000,-0.100000)"
fill="#bd7777" stroke="none">
<path d="M977 5104 c-187 -34 -371 -129 -507 -264 -136 -134 -220 -278 -272
-468 -31 -110 -31 -362 0 -474 99 -361 358 -621 711 -716 132 -35 344 -37 471
-5 292 74 519 254 651 516 55 111 62 158 29 200 -34 44 -77 44 -162 4 -115
-55 -180 -71 -293 -71 -186 1 -318 56 -451 189 -129 129 -184 263 -184 445 0
176 53 309 176 440 64 68 74 85 74 115 0 97 -66 121 -243 89z m-117 -248 c0
-2 -13 -35 -29 -73 -84 -205 -83 -440 2 -651 74 -180 239 -350 422 -433 129
-58 312 -88 433 -71 34 5 62 5 62 1 0 -3 -29 -34 -65 -67 -299 -280 -757 -280
-1067 0 -97 88 -188 241 -225 378 -24 90 -24 300 0 390 42 155 146 318 264
412 77 61 203 132 203 114z"/>
<path d="M3388 3730 c-209 -53 -412 -198 -513 -368 -1 -1 -21 4 -44 13 -112
39 -286 37 -415 -6 -143 -48 -295 -171 -366 -298 l-35 -62 -150 -3 c-137 -2
-158 -5 -245 -34 -136 -45 -239 -109 -341 -211 -157 -157 -237 -336 -247 -555
-6 -136 7 -223 49 -340 92 -253 308 -451 576 -528 l78 -23 1305 0 c1461 0
1353 -5 1508 72 240 121 402 381 402 648 0 303 -193 585 -471 686 l-55 20 9
62 c13 90 1 233 -29 333 -80 277 -280 485 -554 576 -86 28 -109 32 -240 34
-118 3 -159 0 -222 -16z m414 -212 c99 -37 172 -84 249 -160 157 -156 226
-419 164 -624 -8 -27 -15 -62 -15 -77 0 -39 47 -84 96 -92 62 -10 155 -45 204
-76 288 -181 334 -584 94 -824 -71 -71 -176 -127 -269 -145 -43 -8 -419 -10
-1320 -8 l-1260 3 -65 23 c-145 52 -286 164 -358 285 -84 139 -113 322 -77
482 51 232 235 422 469 485 68 19 96 21 190 16 61 -3 132 -8 159 -12 64 -8 90
10 117 82 32 86 64 136 130 198 140 134 337 166 520 86 38 -17 76 -30 85 -30
34 0 74 32 103 82 89 159 216 260 392 315 66 20 91 23 200 19 102 -3 137 -8
192 -28z"/>
<path d="M2894 1051 c-38 -23 -54 -65 -54 -142 0 -44 -4 -59 -14 -59 -8 0 -36
-15 -64 -34 l-50 -33 -58 34 c-48 28 -66 33 -99 29 -52 -6 -85 -43 -85 -94 1
-47 18 -69 83 -108 l52 -30 3 -80 3 -79 -50 -28 c-95 -53 -119 -121 -62 -178
40 -39 84 -39 157 3 45 25 60 29 73 20 9 -7 37 -23 62 -36 l46 -25 5 -77 c5
-72 8 -80 38 -107 28 -25 38 -28 74 -24 65 9 86 41 86 132 l0 74 43 20 c23 11
54 28 68 37 26 17 28 16 81 -14 33 -19 69 -32 89 -32 60 1 106 56 95 115 -7
37 -27 57 -92 95 l-46 26 0 78 -1 77 50 29 c85 49 109 94 81 155 -13 29 -55
55 -89 55 -12 0 -50 -15 -84 -34 -55 -30 -63 -32 -81 -19 -10 8 -40 26 -66 39
l-48 24 0 71 c0 80 -15 112 -62 128 -41 15 -48 14 -84 -8z m115 -399 c88 -47
93 -180 9 -232 -26 -16 -45 -20 -86 -17 -73 5 -113 44 -119 114 -12 116 95
189 196 135z"/>
</g>
</svg>
