<?xml version="1.0" standalone="no"?>
<!DOCTYPE svg PUBLIC "-//W3C//DTD SVG 20010904//EN"
 "http://www.w3.org/TR/2001/REC-SVG-20010904/DTD/svg10.dtd">
<svg version="1.0" xmlns="http://www.w3.org/2000/svg"
 width="512.000000pt" height="512.000000pt" viewBox="0 0 512.000000 512.000000"
 preserveAspectRatio="xMidYMid meet">

<g transform="translate(0.000000,512.000000) scale(0.100000,-0.100000)"
fill="#000000" stroke="none">
<path d="M905 4589 c-388 -56 -718 -328 -847 -698 -53 -153 -70 -346 -44 -502
88 -535 546 -910 1081 -886 399 18 744 250 911 612 49 106 45 159 -16 190 -42
22 -63 19 -140 -20 -105 -53 -198 -75 -315 -75 -187 0 -338 59 -470 182 -201
187 -272 456 -191 714 33 104 85 190 171 282 76 81 86 114 51 166 -29 46 -68
53 -191 35z m-175 -304 c-211 -443 -31 -966 406 -1184 143 -71 214 -86 405
-86 l167 0 -20 -28 c-52 -73 -212 -183 -339 -233 -146 -57 -353 -69 -509 -29
-96 25 -238 97 -322 163 -446 355 -413 1059 65 1369 58 38 168 94 174 89 1 -1
-11 -28 -27 -61z"/>
<path d="M3490 3115 c-93 -20 -172 -49 -259 -96 -128 -69 -203 -137 -321 -290
-14 -19 -17 -19 -59 -4 -172 60 -409 33 -579 -67 -77 -45 -209 -178 -255 -258
l-37 -65 -138 -1 c-150 -1 -236 -16 -355 -64 -263 -108 -464 -338 -539 -620
-31 -118 -31 -328 1 -445 87 -324 332 -567 662 -657 l84 -23 1385 0 1385 0 79
23 c273 79 480 289 553 562 27 99 24 292 -5 393 -68 238 -233 423 -457 514
-61 25 -79 37 -77 50 48 342 -73 663 -328 866 -83 67 -240 146 -340 172 -89
23 -314 29 -400 10z m395 -219 c334 -114 538 -460 470 -796 -27 -134 -28 -138
-21 -165 9 -35 41 -53 136 -76 114 -27 192 -70 276 -154 180 -177 223 -434
112 -663 -45 -93 -168 -216 -262 -261 -135 -64 -71 -62 -1549 -58 -1489 3
-1369 -3 -1520 70 -187 89 -314 239 -378 447 -33 106 -33 274 0 380 88 287
307 472 601 512 75 10 104 9 203 -7 109 -17 117 -17 142 -1 14 9 31 29 37 44
81 202 171 299 334 358 127 47 266 39 396 -20 101 -46 129 -36 189 67 97 166
256 287 442 338 108 29 283 22 392 -15z"/>
</g>
</svg>
